<?xml version="1.0" encoding="UTF-8" standalone="no"?>
<!DOCTYPE svg PUBLIC "-//W3C//DTD SVG 1.1//EN" "http://www.w3.org/Graphics/SVG/1.1/DTD/svg11.dtd">
<svg width="100%" height="100%" viewBox="0 0 1280 720" version="1.1" xmlns="http://www.w3.org/2000/svg" xmlns:xlink="http://www.w3.org/1999/xlink" xml:space="preserve" xmlns:serif="http://www.serif.com/" style="fill-rule:evenodd;clip-rule:evenodd;stroke-linejoin:round;stroke-miterlimit:2;">
    <g transform="matrix(1,0,0,1,74.493291,20.669285)">
        <text x="526.522px" y="358.314px" style="font-family:'Lato-Regular', 'Lato', sans-serif;font-size:144px;fill:rgb(2,24,47);">Obs</text>
        <g transform="matrix(144,0,0,144,1026.057796,358.313886)">
        </g>
        <text x="784.426px" y="358.314px" style="font-family:'Lato-Regular', 'Lato', sans-serif;font-size:144px;fill:rgb(248,146,73);">airy</text>
    </g>
    <g transform="matrix(1,0,0,1,132.536718,-23.884567)">
        <g transform="matrix(24,0,0,24,876.033796,432.977332)">
        </g>
        <text x="526.522px" y="432.977px" style="font-family:'Lato-Regular', 'Lato', sans-serif;font-size:24px;fill:rgb(151,160,170);">OPEN SOUR<tspan x="661.354px " y="432.977px ">C</tspan>E OBSERV<tspan x="787.858px " y="432.977px ">A</tspan>BILITY</text>
    </g>
    <g transform="matrix(0.08458,0,0,0.08458,363.21134,360)">
        <g transform="matrix(1,0,0,1,-3023.622047,-3023.622047)">
            <g transform="matrix(1,0,0,1,-0,-431.055862)">
                <path d="M2461.836,3864.688C2288.338,3838.664 2077.452,3813.133 1900.563,3809.691L1900.563,2667.024L2461.836,2667.024L2461.836,3864.688Z" style="fill:url(#_Linear1);"/>
            </g>
            <g transform="matrix(1,0,0,1,-0,-431.055862)">
                <path d="M3526.326,4066.359L3526.326,2885.308L4065.148,2885.308L4065.148,3985.318L3923.521,3979.527L3835.045,3890.865C3810.474,3866.242 3776.501,3853.375 3741.783,3855.543C3707.065,3857.711 3674.956,3874.704 3653.638,3902.192L3526.326,4066.359Z" style="fill:url(#_Linear2);"/>
            </g>
            <g transform="matrix(1,0,0,1,-0,-431.055862)">
                <path d="M2723.706,3865.844L2723.706,2088.301L3262.528,2088.301L3262.528,3731.067L3135.182,3429.42C3116.317,3384.735 3072.608,3355.617 3024.104,3355.424C2975.6,3355.231 2931.661,3383.999 2912.441,3428.533L2723.706,3865.844Z" style="fill:url(#_Linear3);"/>
            </g>
            <g transform="matrix(1,0,0,1,-0,-431.055862)">
                <path d="M757.706,4316.673C757.706,4316.673 1491.594,4151.903 1836.725,4156.58C2173.179,4161.14 2850.94,4361.575 2850.94,4361.575L3023.622,3888.702L3384.144,4821.055L3778.79,4275.43L5289.538,4156.58L3871.256,4098.585L3749.329,3976.401L3416.073,4406.126L3023.622,3476.517L2779.454,4042.27C2779.454,4042.27 2062.383,3895.102 1725.751,3937.507C1356.818,3983.98 757.706,4316.673 757.706,4316.673Z" style="fill:rgb(2,24,47);"/>
            </g>
        </g>
    </g>
    <defs>
        <linearGradient id="_Linear1" x1="0" y1="0" x2="1" y2="0" gradientUnits="userSpaceOnUse" gradientTransform="matrix(0,771.102572,-771.102572,0,2181.199464,3225.630421)"><stop offset="0" style="stop-color:rgb(126,183,45);stop-opacity:1"/><stop offset="1" style="stop-color:rgb(126,147,89);stop-opacity:1"/></linearGradient>
        <linearGradient id="_Linear2" x1="0" y1="0" x2="1" y2="0" gradientUnits="userSpaceOnUse" gradientTransform="matrix(538.822251,1523.831597,-1523.831597,538.822251,3526.325565,2888.169214)"><stop offset="0" style="stop-color:rgb(226,55,12);stop-opacity:1"/><stop offset="1" style="stop-color:rgb(89,0,0);stop-opacity:1"/></linearGradient>
        <linearGradient id="_Linear3" x1="0" y1="0" x2="1" y2="0" gradientUnits="userSpaceOnUse" gradientTransform="matrix(434.050934,1829.813477,-1829.813477,434.050934,2723.705687,2088.300887)"><stop offset="0" style="stop-color:rgb(248,160,14);stop-opacity:1"/><stop offset="1" style="stop-color:rgb(248,140,97);stop-opacity:1"/></linearGradient>
    </defs>
</svg>
