<?xml version="1.0" encoding="UTF-8" standalone="no"?>
<!DOCTYPE svg PUBLIC "-//W3C//DTD SVG 1.1//EN" "http://www.w3.org/Graphics/SVG/1.1/DTD/svg11.dtd">
<svg width="100%" height="100%" viewBox="0 0 6048 6048" version="1.1" xmlns="http://www.w3.org/2000/svg" xmlns:xlink="http://www.w3.org/1999/xlink" xml:space="preserve" xmlns:serif="http://www.serif.com/" style="fill-rule:evenodd;clip-rule:evenodd;stroke-linejoin:round;stroke-miterlimit:2;">
    <g transform="matrix(1,0,0,1,-0,-431.055862)">
        <path d="M1900.563,2667.024L1900.563,4016.808L2461.836,4031.214L2461.836,2667.024L1900.563,2667.024Z" style="fill:url(#_Linear1);"/>
    </g>
    <g transform="matrix(1,0,0,1,-0,-431.055862)">
        <rect x="3526.326" y="2885.308" width="538.822" height="1366.005" style="fill:url(#_Linear2);"/>
    </g>
    <g transform="matrix(1,0,0,1,-0,-431.055862)">
        <path d="M2723.706,2088.301L3262.528,2088.301L3262.528,4031.214L2723.706,4031.214" style="fill:url(#_Linear3);"/>
    </g>
    <g transform="matrix(1,0,0,1,-0,-431.055862)">
        <path d="M757.706,4316.673C757.706,4316.673 1491.594,4151.903 1836.725,4156.58C2173.179,4161.14 2850.94,4361.575 2850.94,4361.575L3023.622,3888.702L3384.144,4821.055L3778.79,4275.43L5289.538,4156.58L3871.256,4098.585L3749.329,3976.401L3416.073,4406.126L3023.622,3476.517L2779.454,4042.27C2779.454,4042.27 2062.383,3895.102 1725.751,3937.507C1356.818,3983.98 757.706,4316.673 757.706,4316.673Z" style="fill:rgb(2,24,47);"/>
        <path d="M698.918,4210.807C698.918,4210.807 1325.41,3865.886 1710.617,3817.362C1982.455,3783.12 2493.606,3866.615 2706.687,3905.278L2912.441,3428.533C2931.661,3383.999 2975.6,3355.231 3024.104,3355.424C3072.608,3355.617 3116.317,3384.735 3135.182,3429.42L3447.168,4168.43L3653.638,3902.192C3674.956,3874.704 3707.065,3857.711 3741.783,3855.543C3776.501,3853.375 3810.474,3866.242 3835.045,3890.865L3923.521,3979.527L5294.485,4035.587C5358.505,4038.205 5409.404,4090.24 5410.61,4154.301C5411.816,4218.362 5362.91,4272.276 5299.035,4277.301L3844.098,4391.76L3482.263,4892.023C3456.247,4927.991 3412.637,4946.842 3368.614,4941.149C3324.59,4935.455 3287.21,4906.131 3271.2,4864.728L3026.864,4232.847L2964.687,4403.113C2942.755,4463.171 2877.911,4495.829 2816.599,4477.698C2816.599,4477.698 2160.797,4282.077 1835.084,4277.663C1498.905,4273.107 784.234,4434.826 784.234,4434.826C725.486,4448.016 665.971,4416.039 644.542,4359.771C623.112,4303.503 646.279,4240.038 698.918,4210.807ZM757.706,4316.673C757.706,4316.673 1491.594,4151.903 1836.725,4156.58C2173.179,4161.14 2850.94,4361.575 2850.94,4361.575L3023.622,3888.702L3384.144,4821.055L3778.79,4275.43L5289.538,4156.58L3871.256,4098.585L3749.329,3976.401L3416.073,4406.126L3023.622,3476.517L2779.454,4042.27C2779.454,4042.27 2062.383,3895.102 1725.751,3937.507C1356.818,3983.98 757.706,4316.673 757.706,4316.673Z" style="fill:white;"/>
    </g>
    <defs>
        <linearGradient id="_Linear1" x1="0" y1="0" x2="1" y2="0" gradientUnits="userSpaceOnUse" gradientTransform="matrix(0,771.102572,-771.102572,0,2181.199464,3225.630421)"><stop offset="0" style="stop-color:rgb(126,183,45);stop-opacity:1"/><stop offset="1" style="stop-color:rgb(126,147,89);stop-opacity:1"/></linearGradient>
        <linearGradient id="_Linear2" x1="0" y1="0" x2="1" y2="0" gradientUnits="userSpaceOnUse" gradientTransform="matrix(538.822251,1523.831597,-1523.831597,538.822251,3526.325565,2888.169214)"><stop offset="0" style="stop-color:rgb(226,55,12);stop-opacity:1"/><stop offset="1" style="stop-color:rgb(89,0,0);stop-opacity:1"/></linearGradient>
        <linearGradient id="_Linear3" x1="0" y1="0" x2="1" y2="0" gradientUnits="userSpaceOnUse" gradientTransform="matrix(434.050934,1829.813477,-1829.813477,434.050934,2723.705687,2088.300887)"><stop offset="0" style="stop-color:rgb(248,160,14);stop-opacity:1"/><stop offset="1" style="stop-color:rgb(248,140,97);stop-opacity:1"/></linearGradient>
    </defs>
</svg>
